<svg aria-hidden="true" style="width:0;height:0;position:absolute;overflow:hidden" xmlns="http://www.w3.org/2000/svg"><defs><symbol id="icon-logo" viewBox="0 0 32 32"><path fill="#00adfe" style="fill:var(--color1,#00adfe)" d="M31 16c0 8.284-6.716 15-15 15S1 24.284 1 16C1 7.716 7.716 1 16 1s15 6.716 15 15z"/><path fill="#356cb6" style="fill:var(--color2,#356cb6)" opacity=".3" d="M28 16c0 6.627-5.373 12-12 12S4 22.627 4 16 9.373 4 16 4s12 5.373 12 12z"/><path fill="#393c54" style="fill:var(--color3,#393c54)" d="M16 31h.016c4.029 0 7.685-1.593 10.373-4.184l-.005.004c-.25-5.607-.985-13.873-3.163-18.795-1.207-2.73-4.037-4.555-7.223-4.555-3.185 0-6.162 1.75-7.223 4.555-1.883 4.957-2.69 13.308-3.027 18.915A14.876 14.876 0 0 0 15.985 31h.014-.001z"/><path fill="#fff" style="fill:var(--color4,#fff)" d="M21.032 9.033c-.88-2.12-2.62-3.205-4.935-3.25h-.195c-2.315.055-4.055 1.14-4.935 3.25-.908 2.178-1.207 5.443 0 9.797 1.172 4.25 2.635 5.122 4.935 5.168h.195c2.3-.045 3.75-.93 4.935-5.168 1.218-4.355.907-7.62 0-9.797z"/><path fill="none" stroke="#393c54" style="stroke:var(--color3,#393c54)" stroke-linecap="round" stroke-miterlimit="10" stroke-width="1.377" d="M19.395 13.207h1.102"/><path fill="#393c54" style="fill:var(--color3,#393c54)" d="M17.125 22a7.757 7.757 0 0 1-2.293-.006l.043.005c-.313-.082-.625-.28-.625-.625s.3-.532.625-.625a5.14 5.14 0 0 1 2.284.006l-.034-.007c.302.078.625.28.625.625s-.317.545-.625.625z"/><path fill="none" stroke="#393c54" style="stroke:var(--color3,#393c54)" stroke-linecap="round" stroke-miterlimit="10" stroke-width=".552" d="M20.512 14.527a2.48 2.48 0 0 1-1.449-.098l.017.006"/><path fill="#a7aece" style="fill:var(--color5,#a7aece)" d="M18.855 16.25a.828.828 0 0 1 1.645-.004v.004c0 .457-.828 3.582-1.378 3.582-.267-.01-.267-3.135-.267-3.582zM18.843 11.25a.829.829 0 1 0 1.658 0c0-.455-.648-2.48-1.102-2.48s-.555 2.027-.555 2.48z"/><path fill="none" stroke="#393c54" style="stroke:var(--color3,#393c54)" stroke-linecap="round" stroke-miterlimit="10" stroke-width="1.377" d="M11.502 13.207h1.103"/><path fill="none" stroke="#393c54" style="stroke:var(--color3,#393c54)" stroke-linecap="round" stroke-miterlimit="10" stroke-width=".552" d="M12.92 14.44a2.538 2.538 0 0 1-1.495.069l.017.004"/><path fill="#a7aece" style="fill:var(--color5,#a7aece)" d="M13.158 11.25a.829.829 0 1 1-1.658 0c0-.455.647-2.48 1.103-2.48s.555 2.027.555 2.48zM13.145 16.25a.828.828 0 0 0-1.644-.004v.004c0 .457.828 3.582 1.377 3.582.268-.01.268-3.135.268-3.582zM17.102 22.58c0 .305-.5.552-1.102.552s-1.102-.25-1.102-.552c0-.155.5-.067 1.102-.067s1.102-.087 1.102.067z"/><path fill="#393c54" style="fill:var(--color3,#393c54)" opacity=".2" d="M21.032 9.033a5.483 5.483 0 0 0-1.122-1.737l.002.002c.363 2.58.157 5.91-.34 10.465-.523 4.775-2.858 5.825-5.25 6a5.18 5.18 0 0 0 1.559.235h.223c2.3-.045 3.75-.93 4.935-5.168 1.21-4.355.9-7.62-.008-9.797z"/></symbol><symbol id="icon-heart" viewBox="0 0 32 32"><path d="M23.6 2c-3.363 0-6.258 2.736-7.599 5.594C14.659 4.736 11.764 2 8.4 2 3.763 2 0 5.764 0 10.401c0 9.433 9.516 11.906 16.001 21.232C22.131 22.365 32 19.533 32 10.401 32 5.764 28.237 2 23.6 2z"/></symbol><symbol id="icon-cross" viewBox="0 0 32 32"><path d="M31.708 25.708 22 16l9.708-9.708a1 1 0 0 0 0-1.414L27.122.292a1 1 0 0 0-1.414-.001L16 9.999 6.292.291a.998.998 0 0 0-1.414.001L.292 4.878a1 1 0 0 0 0 1.414L10 16 .292 25.708a.999.999 0 0 0 0 1.414l4.586 4.586a1 1 0 0 0 1.414 0L16 22l9.708 9.708a1 1 0 0 0 1.414 0l4.586-4.586a.999.999 0 0 0 0-1.414z"/></symbol><symbol id="icon-circle-up" viewBox="0 0 32 32"><path d="M0 16c0 8.837 7.163 16 16 16s16-7.163 16-16S24.837 0 16 0 0 7.163 0 16zm29 0c0 7.18-5.82 13-13 13S3 23.18 3 16 8.82 3 16 3s13 5.82 13 13z"/><path d="m22.086 20.914 2.829-2.829-8.914-8.914-8.914 8.914 2.828 2.828 6.086-6.086z"/></symbol><symbol id="icon-dark-theme" viewBox="0 0 32 32"><path d="M12.516 4.509a11.733 11.733 0 0 0-.519 3.493c0 6.029 4.446 11.019 10.238 11.872l.065.008c.51.075 1.1.119 1.7.119h.018c1.239 0 2.433-.188 3.557-.537l-.085.023c-1.413 4.47-5.232 7.773-9.9 8.414l-.063.007c-.458.059-.989.093-1.527.093h-.026c-6.627 0-12-5.373-12-12 0-5.394 3.559-9.957 8.457-11.468l.085-.023zM16 0c-.78 0-1.548.055-2.299.16l.087-.01C5.942 1.263-.026 7.934-.026 16c0 8.837 7.163 16 16 16h.028-.001c.709 0 1.407-.045 2.092-.131l-.082.008c7.172-.947 12.802-6.517 13.83-13.578l.01-.087c.096-.667.15-1.438.15-2.221v-.049.003a1.957 1.957 0 0 0-1.957-1.944l-.045.001h.002a2.04 2.04 0 0 0-1.235.417l.005-.004a7.883 7.883 0 0 1-4.763 1.587h-.007c-.406 0-.805-.029-1.195-.085l.045.005c-3.898-.577-6.855-3.9-6.855-7.913 0-1.804.598-3.469 1.606-4.807l-.015.02A2.064 2.064 0 0 0 16.065.003l-.008-.001z"/></symbol><symbol id="icon-light-theme" viewBox="0 0 32 32"><path d="M16 26a2 2 0 0 1 2 2v2a2 2 0 1 1-4 0v-2a2 2 0 0 1 2-2zm0-20a2 2 0 0 1-2-2V2a2 2 0 1 1 4 0v2a2 2 0 0 1-2 2zm14 8a2 2 0 1 1 0 4h-2a2 2 0 1 1 0-4h2zM6 16a2 2 0 0 1-2 2H2a2 2 0 1 1 0-4h2a2 2 0 0 1 2 2zm19.899 7.071 1.414 1.414a2 2 0 1 1-2.828 2.828l-1.414-1.414a2 2 0 1 1 2.828-2.828zM6.101 8.929 4.687 7.515a2 2 0 1 1 2.828-2.828l1.414 1.414a2 2 0 1 1-2.828 2.828zm19.798 0a2 2 0 1 1-2.828-2.828l1.414-1.414a2 2 0 1 1 2.828 2.828l-1.414 1.414zM6.101 23.071a2 2 0 1 1 2.828 2.828l-1.414 1.414a2 2 0 1 1-2.828-2.828l1.414-1.414zM16 8a8 8 0 1 0 0 16 8 8 0 0 0 0-16zm0 13a5 5 0 1 1 .001-10.001A5 5 0 0 1 16 21z"/></symbol><symbol id="icon-search" viewBox="0 0 32 32"><path d="m27.414 24.586-5.077-5.077A9.932 9.932 0 0 0 24 14c0-5.514-4.486-10-10-10S4 8.486 4 14s4.486 10 10 10a9.932 9.932 0 0 0 5.509-1.663l5.077 5.077a2 2 0 1 0 2.828-2.828zM7 14c0-3.86 3.14-7 7-7s7 3.14 7 7-3.14 7-7 7-7-3.14-7-7z"/></symbol><symbol id="icon-github" viewBox="0 0 32 32"><path d="M16 .395c-8.836 0-16 7.163-16 16 0 7.069 4.585 13.067 10.942 15.182.8.148 1.094-.347 1.094-.77 0-.381-.015-1.642-.022-2.979-4.452.968-5.391-1.888-5.391-1.888-.728-1.849-1.776-2.341-1.776-2.341-1.452-.993.11-.973.11-.973 1.606.113 2.452 1.649 2.452 1.649 1.427 2.446 3.743 1.739 4.656 1.33.143-1.034.558-1.74 1.016-2.14-3.554-.404-7.29-1.777-7.29-7.907 0-1.747.625-3.174 1.649-4.295-.166-.403-.714-2.03.155-4.234 0 0 1.344-.43 4.401 1.64a15.353 15.353 0 0 1 4.005-.539c1.359.006 2.729.184 4.008.539 3.054-2.07 4.395-1.64 4.395-1.64.871 2.204.323 3.831.157 4.234 1.026 1.12 1.647 2.548 1.647 4.295 0 6.145-3.743 7.498-7.306 7.895.574.497 1.085 1.47 1.085 2.963 0 2.141-.019 3.864-.019 4.391 0 .426.288.925 1.099.768C27.421 29.457 32 23.462 32 16.395c0-8.837-7.164-16-16-16z"/></symbol><symbol id="icon-code" viewBox="0 0 40 32"><path d="m26 23 3 3 10-10L29 6l-3 3 7 7zM14 9l-3-3L1 16l10 10 3-3-7-7zM21.916 4.704l2.171.592-6 22.001-2.171-.592 6-22.001z"/></symbol><symbol id="icon-back" viewBox="0 0 32 32"><path d="M23.808 32c3.554-6.439 4.153-16.26-9.808-15.932V24L2 12 14 0v7.762C30.718 7.326 32.58 22.519 23.808 32z"/></symbol><symbol id="icon-delete" viewBox="0 0 32 32"><path d="M4 10v20c0 1.1.9 2 2 2h18c1.1 0 2-.9 2-2V10H4zm6 18H8V14h2v14zm4 0h-2V14h2v14zm4 0h-2V14h2v14zm4 0h-2V14h2v14zM26.5 4H20V1.5c0-.825-.675-1.5-1.5-1.5h-7c-.825 0-1.5.675-1.5 1.5V4H3.5C2.675 4 2 4.675 2 5.5V8h26V5.5c0-.825-.675-1.5-1.5-1.5zM18 4h-6V2.025h6V4z"/></symbol></defs></svg>