<svg version="1.0" xmlns="http://www.w3.org/2000/svg" width="170.667" height="170.667" viewBox="0 0 128 128"><path d="M55.4 4.9c-23.2 3.7-42.2 20.6-49 43.6-2.3 8-2.3 23 0 31 5 16.9 17.1 31.6 31.7 38.4 23.8 11.1 49.6 6.8 67.4-11.3 12.1-12.2 17.8-26.1 17.8-42.6 0-11.1-1.8-18.2-7.1-28.5-11-21-37.3-34.2-60.8-30.6zm19.4 20.9c4.7 2.4 9.7 9.7 11.1 16.2 3.4 15.9-1.6 40.8-9.8 49.2-4 4-10.1 5.6-16.6 4.4-11-2.1-18-18.3-18-41.6 0-11.4.2-13 2.6-18.1 2.9-6 7.3-10.1 12.9-11.8 4.8-1.4 13.3-.6 17.8 1.7z"/><path d="M44 51.6c-1.2 1.4-1.2 1.8.5 3 3.6 2.7 9 1.2 8.3-2.2-.4-2.6-6.9-3.2-8.8-.8zM75.7 50.7c-1.3 1.2-.7 4.1.9 4.7 4.5 1.7 9.1-.5 7.8-3.8-.6-1.6-7.3-2.4-8.7-.9zM45 58c0 .5 1.5 1 3.4 1s3.8-.5 4.1-1c.4-.6-1-1-3.4-1-2.3 0-4.1.4-4.1 1zM75 57.5c0 1 5 2.4 6.5 1.9C84.3 58.3 83 57 79 57c-2.2 0-4 .2-4 .5zM79 65.7c0 1.6-.2 4.6-.5 6.8l-.5 4 1.4-3.5c1.7-4.1 2-10 .6-10-.5 0-1 1.2-1 2.7zM57.4 84.5c-1.1 2.7 1 3.6 7.2 3.3 5.1-.3 5.9-.6 5.9-2.3 0-1.8-.8-2-6.3-2.3-5-.2-6.3 0-6.8 1.3z"/></svg>