<svg aria-hidden="true" style="position: absolute; width: 0; height: 0; overflow: hidden;" version="1.1" xmlns="http://www.w3.org/2000/svg" xmlns:xlink="http://www.w3.org/1999/xlink">
<defs>
<symbol id="icon-logo" viewBox="0 0 32 32">
<path fill="#00adfe" style="fill: var(--color1, #00adfe)" d="M31 16c0 8.284-6.716 15-15 15s-15-6.716-15-15c0-8.284 6.716-15 15-15s15 6.716 15 15z"></path>
<path fill="#356cb6" style="fill: var(--color2, #356cb6)" opacity="0.3" d="M28 16c0 6.627-5.373 12-12 12s-12-5.373-12-12c0-6.627 5.373-12 12-12s12 5.373 12 12z"></path>
<path fill="#393c54" style="fill: var(--color3, #393c54)" d="M16 31c0.005 0 0.011 0 0.016 0 4.029 0 7.685-1.593 10.373-4.184l-0.005 0.004c-0.25-5.607-0.985-13.873-3.163-18.795-1.207-2.73-4.037-4.555-7.223-4.555v0c-3.185 0-6.162 1.75-7.223 4.555-1.883 4.957-2.69 13.308-3.027 18.915 2.667 2.515 6.271 4.060 10.237 4.060 0.005 0 0.009 0 0.014 0h-0.001z"></path>
<path fill="#fff" style="fill: var(--color4, #fff)" d="M21.032 9.033c-0.88-2.12-2.62-3.205-4.935-3.25v0h-0.195c-2.315 0.055-4.055 1.14-4.935 3.25-0.908 2.178-1.207 5.443 0 9.797 1.172 4.25 2.635 5.122 4.935 5.168h0.195c2.3-0.045 3.75-0.93 4.935-5.168 1.218-4.355 0.907-7.62 0-9.797z"></path>
<path fill="none" stroke="#393c54" style="stroke: var(--color3, #393c54)" stroke-linejoin="miter" stroke-linecap="round" stroke-miterlimit="10" stroke-width="1.3775" d="M19.395 13.207h1.102"></path>
<path fill="#393c54" style="fill: var(--color3, #393c54)" d="M17.125 22c-0.338 0.052-0.728 0.082-1.125 0.082s-0.787-0.030-1.168-0.088l0.043 0.005c-0.313-0.082-0.625-0.28-0.625-0.625s0.3-0.532 0.625-0.625c0.338-0.080 0.726-0.126 1.125-0.126s0.787 0.046 1.159 0.132l-0.034-0.007c0.302 0.078 0.625 0.28 0.625 0.625s-0.317 0.545-0.625 0.625z"></path>
<path fill="none" stroke="#393c54" style="stroke: var(--color3, #393c54)" stroke-linejoin="miter" stroke-linecap="round" stroke-miterlimit="10" stroke-width="0.5525" d="M20.512 14.527c-0.169 0.041-0.364 0.065-0.563 0.065-0.312 0-0.611-0.058-0.886-0.163l0.017 0.006"></path>
<path fill="#a7aece" style="fill: var(--color5, #a7aece)" d="M18.855 16.25c0.047-0.416 0.397-0.737 0.823-0.737s0.775 0.32 0.822 0.733l0 0.004c0 0.457-0.828 3.582-1.378 3.582-0.267-0.010-0.267-3.135-0.267-3.582z"></path>
<path fill="#a7aece" style="fill: var(--color5, #a7aece)" d="M18.843 11.25c0 0.458 0.371 0.829 0.829 0.829s0.829-0.371 0.829-0.829v0c0-0.455-0.648-2.48-1.102-2.48s-0.555 2.027-0.555 2.48z"></path>
<path fill="none" stroke="#393c54" style="stroke: var(--color3, #393c54)" stroke-linejoin="miter" stroke-linecap="round" stroke-miterlimit="10" stroke-width="1.3775" d="M11.502 13.207h1.103"></path>
<path fill="none" stroke="#393c54" style="stroke: var(--color3, #393c54)" stroke-linejoin="miter" stroke-linecap="round" stroke-miterlimit="10" stroke-width="0.5525" d="M12.92 14.44c-0.255 0.096-0.549 0.151-0.856 0.151-0.221 0-0.435-0.029-0.639-0.082l0.017 0.004"></path>
<path fill="#a7aece" style="fill: var(--color5, #a7aece)" d="M13.158 11.25c0 0.458-0.371 0.829-0.829 0.829s-0.829-0.371-0.829-0.829v0c0-0.455 0.647-2.48 1.103-2.48s0.555 2.027 0.555 2.48z"></path>
<path fill="#a7aece" style="fill: var(--color5, #a7aece)" d="M13.145 16.25c-0.047-0.416-0.397-0.737-0.822-0.737s-0.775 0.32-0.822 0.733l-0 0.004c0 0.457 0.828 3.582 1.377 3.582 0.268-0.010 0.268-3.135 0.268-3.582z"></path>
<path fill="#a7aece" style="fill: var(--color5, #a7aece)" d="M17.102 22.58c0 0.305-0.5 0.552-1.102 0.552s-1.102-0.25-1.102-0.552c0-0.155 0.5-0.067 1.102-0.067s1.102-0.087 1.102 0.067z"></path>
<path fill="#393c54" style="fill: var(--color3, #393c54)" opacity="0.2" d="M21.032 9.033c-0.275-0.672-0.653-1.248-1.122-1.737l0.002 0.002c0.363 2.58 0.157 5.91-0.34 10.465-0.523 4.775-2.858 5.825-5.25 6 0.466 0.149 1.003 0.235 1.559 0.235 0.010 0 0.020-0 0.030-0h0.193c2.3-0.045 3.75-0.93 4.935-5.168 1.21-4.355 0.9-7.62-0.008-9.797z"></path>
</symbol>
<symbol id="icon-heart" viewBox="0 0 32 32">
<path d="M23.6 2c-3.363 0-6.258 2.736-7.599 5.594-1.342-2.858-4.237-5.594-7.601-5.594-4.637 0-8.4 3.764-8.4 8.401 0 9.433 9.516 11.906 16.001 21.232 6.13-9.268 15.999-12.1 15.999-21.232 0-4.637-3.763-8.401-8.4-8.401z"></path>
</symbol>
<symbol id="icon-cross" viewBox="0 0 32 32">
<path d="M31.708 25.708c-0-0-0-0-0-0l-9.708-9.708 9.708-9.708c0-0 0-0 0-0 0.105-0.105 0.18-0.227 0.229-0.357 0.133-0.356 0.057-0.771-0.229-1.057l-4.586-4.586c-0.286-0.286-0.702-0.361-1.057-0.229-0.13 0.048-0.252 0.124-0.357 0.228 0 0-0 0-0 0l-9.708 9.708-9.708-9.708c-0-0-0-0-0-0-0.105-0.104-0.227-0.18-0.357-0.228-0.356-0.133-0.771-0.057-1.057 0.229l-4.586 4.586c-0.286 0.286-0.361 0.702-0.229 1.057 0.049 0.13 0.124 0.252 0.229 0.357 0 0 0 0 0 0l9.708 9.708-9.708 9.708c-0 0-0 0-0 0-0.104 0.105-0.18 0.227-0.229 0.357-0.133 0.355-0.057 0.771 0.229 1.057l4.586 4.586c0.286 0.286 0.702 0.361 1.057 0.229 0.13-0.049 0.252-0.124 0.357-0.229 0-0 0-0 0-0l9.708-9.708 9.708 9.708c0 0 0 0 0 0 0.105 0.105 0.227 0.18 0.357 0.229 0.356 0.133 0.771 0.057 1.057-0.229l4.586-4.586c0.286-0.286 0.362-0.702 0.229-1.057-0.049-0.13-0.124-0.252-0.229-0.357z"></path>
</symbol>
<symbol id="icon-circle-up" viewBox="0 0 32 32">
<path d="M0 16c0 8.837 7.163 16 16 16s16-7.163 16-16-7.163-16-16-16-16 7.163-16 16zM29 16c0 7.18-5.82 13-13 13s-13-5.82-13-13 5.82-13 13-13 13 5.82 13 13z"></path>
<path d="M22.086 20.914l2.829-2.829-8.914-8.914-8.914 8.914 2.828 2.828 6.086-6.086z"></path>
</symbol>
<symbol id="icon-dark-theme" viewBox="0 0 32 32">
<path d="M12.516 4.509c-0.33 1.045-0.519 2.247-0.519 3.493 0 6.029 4.446 11.019 10.238 11.872l0.065 0.008c0.51 0.075 1.1 0.119 1.7 0.119h0c0.005 0 0.012 0 0.018 0 1.239 0 2.433-0.188 3.557-0.537l-0.085 0.023c-1.413 4.47-5.232 7.773-9.9 8.414l-0.063 0.007c-0.458 0.059-0.989 0.093-1.527 0.093h-0c-0.008 0-0.017 0-0.026 0-6.627 0-12-5.373-12-12 0-5.394 3.559-9.957 8.457-11.468l0.085-0.023zM16 0c-0.78 0-1.548 0.055-2.299 0.16l0.087-0.010c-7.846 1.113-13.814 7.784-13.814 15.85 0 8.837 7.163 16 16 16 0.009 0 0.019 0 0.028-0h-0.001c0.709-0 1.407-0.045 2.092-0.131l-0.082 0.008c7.172-0.947 12.802-6.517 13.83-13.578l0.010-0.087c0.096-0.667 0.15-1.438 0.15-2.221 0-0.016-0-0.033-0-0.049v0.003c-0.007-1.075-0.881-1.944-1.957-1.944-0.015 0-0.030 0-0.045 0.001l0.002-0c-0.464 0.001-0.892 0.156-1.235 0.417l0.005-0.004c-1.31 0.991-2.967 1.587-4.763 1.587-0.002 0-0.005 0-0.007 0h0c-0.406-0-0.805-0.029-1.195-0.085l0.045 0.005c-3.898-0.577-6.855-3.9-6.855-7.913 0-1.804 0.598-3.469 1.606-4.807l-0.015 0.020c0.225-0.326 0.359-0.729 0.359-1.163 0-1.078-0.827-1.964-1.881-2.056l-0.008-0.001z"></path>
</symbol>
<symbol id="icon-light-theme" viewBox="0 0 32 32">
<path d="M16 26c1.105 0 2 0.895 2 2v2c0 1.105-0.895 2-2 2s-2-0.895-2-2v-2c0-1.105 0.895-2 2-2zM16 6c-1.105 0-2-0.895-2-2v-2c0-1.105 0.895-2 2-2s2 0.895 2 2v2c0 1.105-0.895 2-2 2zM30 14c1.105 0 2 0.895 2 2s-0.895 2-2 2h-2c-1.105 0-2-0.895-2-2s0.895-2 2-2h2zM6 16c0 1.105-0.895 2-2 2h-2c-1.105 0-2-0.895-2-2s0.895-2 2-2h2c1.105 0 2 0.895 2 2zM25.899 23.071l1.414 1.414c0.781 0.781 0.781 2.047 0 2.828s-2.047 0.781-2.828 0l-1.414-1.414c-0.781-0.781-0.781-2.047 0-2.828s2.047-0.781 2.828 0zM6.101 8.929l-1.414-1.414c-0.781-0.781-0.781-2.047 0-2.828s2.047-0.781 2.828 0l1.414 1.414c0.781 0.781 0.781 2.047 0 2.828s-2.047 0.781-2.828 0zM25.899 8.929c-0.781 0.781-2.047 0.781-2.828 0s-0.781-2.047 0-2.828l1.414-1.414c0.781-0.781 2.047-0.781 2.828 0s0.781 2.047 0 2.828l-1.414 1.414zM6.101 23.071c0.781-0.781 2.047-0.781 2.828 0s0.781 2.047 0 2.828l-1.414 1.414c-0.781 0.781-2.047 0.781-2.828 0s-0.781-2.047 0-2.828l1.414-1.414z"></path>
<path d="M16 8c-4.418 0-8 3.582-8 8s3.582 8 8 8c4.418 0 8-3.582 8-8s-3.582-8-8-8zM16 21c-2.761 0-5-2.239-5-5s2.239-5 5-5 5 2.239 5 5-2.239 5-5 5z"></path>
</symbol>
<symbol id="icon-search" viewBox="0 0 32 32">
<path d="M27.414 24.586l-5.077-5.077c1.049-1.581 1.663-3.474 1.663-5.509 0-5.514-4.486-10-10-10s-10 4.486-10 10 4.486 10 10 10c2.035 0 3.928-0.614 5.509-1.663l5.077 5.077c0.78 0.781 2.048 0.781 2.828 0 0.781-0.781 0.781-2.047 0-2.828zM7 14c0-3.86 3.14-7 7-7s7 3.14 7 7-3.14 7-7 7-7-3.14-7-7z"></path>
</symbol>
<symbol id="icon-github" viewBox="0 0 32 32">
<path d="M16 0.395c-8.836 0-16 7.163-16 16 0 7.069 4.585 13.067 10.942 15.182 0.8 0.148 1.094-0.347 1.094-0.77 0-0.381-0.015-1.642-0.022-2.979-4.452 0.968-5.391-1.888-5.391-1.888-0.728-1.849-1.776-2.341-1.776-2.341-1.452-0.993 0.11-0.973 0.11-0.973 1.606 0.113 2.452 1.649 2.452 1.649 1.427 2.446 3.743 1.739 4.656 1.33 0.143-1.034 0.558-1.74 1.016-2.14-3.554-0.404-7.29-1.777-7.29-7.907 0-1.747 0.625-3.174 1.649-4.295-0.166-0.403-0.714-2.030 0.155-4.234 0 0 1.344-0.43 4.401 1.64 1.276-0.355 2.645-0.532 4.005-0.539 1.359 0.006 2.729 0.184 4.008 0.539 3.054-2.070 4.395-1.64 4.395-1.64 0.871 2.204 0.323 3.831 0.157 4.234 1.026 1.12 1.647 2.548 1.647 4.295 0 6.145-3.743 7.498-7.306 7.895 0.574 0.497 1.085 1.47 1.085 2.963 0 2.141-0.019 3.864-0.019 4.391 0 0.426 0.288 0.925 1.099 0.768 6.354-2.118 10.933-8.113 10.933-15.18 0-8.837-7.164-16-16-16z"></path>
</symbol>
<symbol id="icon-code" viewBox="0 0 40 32">
<path d="M26 23l3 3 10-10-10-10-3 3 7 7z"></path>
<path d="M14 9l-3-3-10 10 10 10 3-3-7-7z"></path>
<path d="M21.916 4.704l2.171 0.592-6 22.001-2.171-0.592 6-22.001z"></path>
</symbol>
</defs>
</svg>
