<?xml version="1.0" standalone="no"?>
<!DOCTYPE svg PUBLIC "-//W3C//DTD SVG 20010904//EN"
 "http://www.w3.org/TR/2001/REC-SVG-20010904/DTD/svg10.dtd">
<svg version="1.0" xmlns="http://www.w3.org/2000/svg"
 width="128.000000pt" height="128.000000pt" viewBox="0 0 128.000000 128.000000"
 preserveAspectRatio="xMidYMid meet">
<metadata>
Created by potrace 1.14, written by Peter Selinger 2001-2017
</metadata>
<g transform="translate(0.000000,128.000000) scale(0.100000,-0.100000)"
fill="#000000" stroke="none">
<path d="M554 1231 c-232 -37 -422 -206 -490 -436 -23 -80 -23 -230 0 -310 50
-169 171 -316 317 -384 238 -111 496 -68 674 113 121 122 178 261 178 426 0
111 -18 182 -71 285 -110 210 -373 342 -608 306z m194 -209 c47 -24 97 -97
111 -162 34 -159 -16 -408 -98 -492 -40 -40 -101 -56 -166 -44 -110 21 -180
183 -180 416 0 114 2 130 26 181 29 60 73 101 129 118 48 14 133 6 178 -17z"/>
<path d="M440 764 c-12 -14 -12 -18 5 -30 36 -27 90 -12 83 22 -4 26 -69 32
-88 8z"/>
<path d="M757 773 c-13 -12 -7 -41 9 -47 45 -17 91 5 78 38 -6 16 -73 24 -87
9z"/>
<path d="M450 700 c0 -5 15 -10 34 -10 19 0 38 5 41 10 4 6 -10 10 -34 10 -23
0 -41 -4 -41 -10z"/>
<path d="M750 705 c0 -10 50 -24 65 -19 28 11 15 24 -25 24 -22 0 -40 -2 -40
-5z"/>
<path d="M790 623 c0 -16 -2 -46 -5 -68 l-5 -40 14 35 c17 41 20 100 6 100 -5
0 -10 -12 -10 -27z"/>
<path d="M574 435 c-11 -27 10 -36 72 -33 51 3 59 6 59 23 0 18 -8 20 -63 23
-50 2 -63 0 -68 -13z"/>
</g>
</svg>
